<?xml version="1.0" encoding="UTF-8"?>
<svg id="Layer_1" data-name="Layer 1" xmlns="http://www.w3.org/2000/svg" viewBox="0 0 84.56 84.07">
  <defs>
    <style>
      .cls-1 {
        fill: #f3efeb;
      }
    </style>
  </defs>
  <g>
    <g id="_Radial_Repeat_" data-name="&amp;lt;Radial Repeat&amp;gt;">
      <g>
        <path class="cls-1" d="M23.7,49.58h0v5.62c0,5.62-4.56,10.18-10.18,10.18h0v-5.62c0-5.62,4.56-10.18,10.18-10.18Z" transform="translate(-9.65 110.87) rotate(-134.16)"/>
        <path class="cls-1" d="M21.35,57.79h0c5.62,0,10.18,4.56,10.18,10.18v5.62h0c-5.62,0-10.18-4.56-10.18-10.18v-5.62h0Z" transform="translate(55.15 .96) rotate(45.84)"/>
        <path class="cls-1" d="M20.09,64.07h0s-.34,2.89-.34,2.89c-.78,6.58-6.75,11.28-13.33,10.5h0s.34-2.89.34-2.89c.78-6.58,6.75-11.28,13.33-10.5Z"/>
        <path class="cls-1" d="M33.74,39.02h0v5.62c0,5.62-4.56,10.18-10.18,10.18h0v-5.62c0-5.62,4.56-10.18,10.18-10.18Z" transform="translate(14.94 100.16) rotate(-134.16)"/>
        <path class="cls-1" d="M31.38,47.24h0c5.62,0,10.18,4.56,10.18,10.18v5.62h0c-5.62,0-10.18-4.56-10.18-10.18v-5.62h0Z" transform="translate(50.62 -9.44) rotate(45.84)"/>
      </g>
    </g>
    <g id="_Radial_Repeat_-2" data-name="&amp;lt;Radial Repeat&amp;gt;">
      <g>
        <path class="cls-1" d="M31.84,10.44h0v5.62c0,5.62-4.56,10.18-10.18,10.18h0v-5.62c0-5.62,4.56-10.18,10.18-10.18Z" transform="translate(-5.22 23.82) rotate(-44.16)"/>
        <path class="cls-1" d="M13.44,18.27h0c5.62,0,10.18,4.56,10.18,10.18v5.62h0c-5.62,0-10.18-4.56-10.18-10.18v-5.62h0Z" transform="translate(50.06 32.03) rotate(135.84)"/>
        <path class="cls-1" d="M20.16,19.82h0s-2.89-.34-2.89-.34c-6.58-.78-11.28-6.75-10.5-13.33h0s2.89.34,2.89.34c6.58.78,11.28,6.75,10.5,13.33Z"/>
        <path class="cls-1" d="M42.39,20.47h0v5.62c0,5.62-4.56,10.18-10.18,10.18h0v-5.62c0-5.62,4.56-10.18,10.18-10.18Z" transform="translate(-9.23 34) rotate(-44.16)"/>
        <path class="cls-1" d="M24,28.3h0c5.62,0,10.18,4.56,10.18,10.18v5.62h0c-5.62,0-10.18-4.56-10.18-10.18v-5.62h0Z" transform="translate(75.18 41.91) rotate(135.84)"/>
      </g>
    </g>
    <g id="_Radial_Repeat_-3" data-name="&amp;lt;Radial Repeat&amp;gt;">
      <g>
        <path class="cls-1" d="M70.97,18.58h0v5.62c0,5.62-4.56,10.18-10.18,10.18h0v-5.62c0-5.62,4.56-10.18,10.18-10.18Z" transform="translate(38.98 -39.23) rotate(45.84)"/>
        <path class="cls-1" d="M52.97,10.36h0c5.62,0,10.18,4.56,10.18,10.18v5.62h0c-5.62,0-10.18-4.56-10.18-10.18v-5.62h0Z" transform="translate(85.4 72.64) rotate(-134.16)"/>
        <path class="cls-1" d="M64.4,19.89h0s.34-2.89.34-2.89c.78-6.58,6.75-11.28,13.33-10.5h0s-.34,2.89-.34,2.89c-.78,6.58-6.75,11.28-13.33,10.5Z"/>
        <path class="cls-1" d="M60.94,29.13h0v5.62c0,5.62-4.56,10.18-10.18,10.18h0v-5.62c0-5.62,4.56-10.18,10.18-10.18Z" transform="translate(43.51 -28.83) rotate(45.84)"/>
        <path class="cls-1" d="M42.93,20.92h0c5.62,0,10.18,4.56,10.18,10.18v5.62h0c-5.62,0-10.18-4.56-10.18-10.18v-5.62h0Z" transform="translate(60.8 83.34) rotate(-134.16)"/>
      </g>
    </g>
    <g id="_Radial_Repeat_-4" data-name="&amp;lt;Radial Repeat&amp;gt;">
      <g>
        <path class="cls-1" d="M62.84,57.71h0v5.62c0,5.62-4.56,10.18-10.18,10.18h0v-5.62c0-5.62,4.56-10.18,10.18-10.18Z" transform="translate(144.89 72.45) rotate(135.84)"/>
        <path class="cls-1" d="M60.87,49.88h0c5.62,0,10.18,4.56,10.18,10.18v5.62h0c-5.62,0-10.18-4.56-10.18-10.18v-5.62h0Z" transform="translate(-21.62 62.28) rotate(-44.16)"/>
        <path class="cls-1" d="M64.34,64.13h0s2.89.34,2.89.34c6.58.78,11.28,6.75,10.5,13.33h0s-2.89-.34-2.89-.34c-6.58-.78-11.28-6.75-10.5-13.33Z"/>
        <path class="cls-1" d="M52.28,47.68h0v5.62c0,5.62-4.56,10.18-10.18,10.18h0v-5.62c0-5.62,4.56-10.18,10.18-10.18Z" transform="translate(119.77 62.57) rotate(135.84)"/>
        <path class="cls-1" d="M50.32,39.85h0c5.62,0,10.18,4.56,10.18,10.18v5.62h0c-5.62,0-10.18-4.56-10.18-10.18v-5.62h0Z" transform="translate(-17.61 52.09) rotate(-44.16)"/>
      </g>
    </g>
  </g>
  <g>
    <g id="_Radial_Repeat_-5" data-name="&amp;lt;Radial Repeat&amp;gt;">
      <path class="cls-1" d="M45.71,81.15c-1.08,1.65-2.99,2.91-4.9,2.85-5.35-.17-5.88-6.32-4.6-10.17,1.08-3.24,3.06-6.05,5.19-8.67-.05.06,1.43,2.07,1.53,2.23.86,1.36,1.63,2.77,2.25,4.25.93,2.24,1.7,4.87,1.38,7.31-.1.76-.4,1.51-.85,2.2Z"/>
    </g>
    <g id="_Radial_Repeat_-6" data-name="&amp;lt;Radial Repeat&amp;gt;">
      <path class="cls-1" d="M3.07,45.43c-1.65-1.08-2.91-2.99-2.85-4.9.17-5.35,6.32-5.88,10.17-4.6,3.24,1.08,6.05,3.06,8.67,5.19-.06-.05-2.07,1.43-2.23,1.53-1.36.86-2.77,1.63-4.25,2.25-2.24.93-4.87,1.7-7.31,1.38-.76-.1-1.51-.4-2.2-.85Z"/>
    </g>
    <g id="_Radial_Repeat_-7" data-name="&amp;lt;Radial Repeat&amp;gt;">
      <path class="cls-1" d="M38.79,2.8c1.08-1.65,2.99-2.91,4.9-2.85,5.35.17,5.88,6.32,4.6,10.17-1.08,3.24-3.06,6.05-5.19,8.67.05-.06-1.43-2.07-1.53-2.23-.86-1.36-1.63-2.77-2.25-4.25-.93-2.24-1.7-4.87-1.38-7.31.1-.76.4-1.51.85-2.2Z"/>
    </g>
    <g id="_Radial_Repeat_-8" data-name="&amp;lt;Radial Repeat&amp;gt;">
      <path class="cls-1" d="M81.43,38.52c1.65,1.08,2.91,2.99,2.85,4.9-.17,5.35-6.32,5.88-10.17,4.6-3.24-1.08-6.05-3.06-8.67-5.19.06.05,2.07-1.43,2.23-1.53,1.36-.86,2.77-1.63,4.25-2.25,2.24-.93,4.87-1.7,7.31-1.38.76.1,1.51.4,2.2.85Z"/>
    </g>
  </g>
</svg>