<?xml version="1.0" encoding="UTF-8"?>
<svg id="Layer_1" data-name="Layer 1" xmlns="http://www.w3.org/2000/svg" viewBox="0 0 141.45 124.02">
  <defs>
    <style>
      .cls-1 {
        fill: #221f20;
      }
    </style>
  </defs>
  <g>
    <g id="_Radial_Repeat_" data-name="&amp;lt;Radial Repeat&amp;gt;">
      <g>
        <path class="cls-1" d="M52.68,70.34h0v5.62c0,5.62-4.56,10.18-10.18,10.18h0v-5.62c0-5.62,4.56-10.18,10.18-10.18Z" transform="translate(27.4 167.57) rotate(-135.96)"/>
        <path class="cls-1" d="M50.58,78.31h0c5.62,0,10.18,4.56,10.18,10.18v5.62h0c-5.62,0-10.18-4.56-10.18-10.18v-5.62h0Z" transform="translate(75.59 -14.46) rotate(44.04)"/>
        <path class="cls-1" d="M49.28,84.78h0s-.25,2.9-.25,2.9c-.57,6.6-6.39,11.49-12.99,10.92h0s.25-2.9.25-2.9c.57-6.6,6.39-11.49,12.99-10.92Z"/>
        <path class="cls-1" d="M62.38,59.48h0v5.62c0,5.62-4.56,10.18-10.18,10.18h0v-5.62c0-5.62,4.56-10.18,10.18-10.18Z" transform="translate(51.62 155.64) rotate(-135.96)"/>
        <path class="cls-1" d="M60.28,67.44h0c5.62,0,10.18,4.56,10.18,10.18v5.62h0c-5.62,0-10.18-4.56-10.18-10.18v-5.62h0Z" transform="translate(70.76 -24.26) rotate(44.04)"/>
      </g>
    </g>
    <g id="_Radial_Repeat_-2" data-name="&amp;lt;Radial Repeat&amp;gt;">
      <g>
        <path class="cls-1" d="M59.58,30.97h0v5.62c0,5.62-4.56,10.18-10.18,10.18h0v-5.62c0-5.62,4.56-10.18,10.18-10.18Z" transform="translate(-11.33 51.02) rotate(-45.96)"/>
        <path class="cls-1" d="M41.44,39.05h0c5.62,0,10.18,4.56,10.18,10.18v5.62h0c-5.62,0-10.18-4.56-10.18-10.18v-5.62h0Z" transform="translate(112.62 46.15) rotate(134.04)"/>
        <path class="cls-1" d="M47.95,40.56h0s-2.9-.25-2.9-.25c-6.6-.57-11.49-6.39-10.92-12.99h0s2.9.25,2.9.25c6.6.57,11.49,6.39,10.92,12.99Z"/>
        <path class="cls-1" d="M70.45,40.67h0v5.62c0,5.62-4.56,10.18-10.18,10.18h0v-5.62c0-5.62,4.56-10.18,10.18-10.18Z" transform="translate(-14.99 61.78) rotate(-45.96)"/>
        <path class="cls-1" d="M52.3,48.75h0c5.62,0,10.18,4.56,10.18,10.18v5.62h0c-5.62,0-10.18-4.56-10.18-10.18v-5.62h0Z" transform="translate(138.01 54.78) rotate(134.04)"/>
      </g>
    </g>
    <g id="_Radial_Repeat_-3" data-name="&amp;lt;Radial Repeat&amp;gt;">
      <g>
        <path class="cls-1" d="M98.95,37.87h0v5.62c0,5.62-4.56,10.18-10.18,10.18h0v-5.62c0-5.62,4.56-10.18,10.18-10.18Z" transform="translate(58.22 -52.38) rotate(44.04)"/>
        <path class="cls-1" d="M80.69,29.91h0c5.62,0,10.18,4.56,10.18,10.18v5.62h0c-5.62,0-10.18-4.56-10.18-10.18v-5.62h0Z" transform="translate(121.16 124.63) rotate(-135.96)"/>
        <path class="cls-1" d="M92.18,39.24h0s.25-2.9.25-2.9c.57-6.6,6.39-11.49,12.99-10.92h0s-.25,2.9-.25,2.9c-.57,6.6-6.39,11.49-12.99,10.92Z"/>
        <path class="cls-1" d="M89.26,48.74h0v5.62c0,5.62-4.56,10.18-10.18,10.18h0v-5.62c0-5.62,4.56-10.18,10.18-10.18Z" transform="translate(63.04 -42.59) rotate(44.04)"/>
        <path class="cls-1" d="M70.99,40.77h0c5.62,0,10.18,4.56,10.18,10.18v5.62h0c-5.62,0-10.18-4.56-10.18-10.18v-5.62h0Z" transform="translate(96.94 136.56) rotate(-135.96)"/>
      </g>
    </g>
    <g id="_Radial_Repeat_-4" data-name="&amp;lt;Radial Repeat&amp;gt;">
      <g>
        <path class="cls-1" d="M92.05,77.25h0v5.62c0,5.62-4.56,10.18-10.18,10.18h0v-5.62c0-5.62,4.56-10.18,10.18-10.18Z" transform="translate(208.62 81.83) rotate(134.04)"/>
        <path class="cls-1" d="M89.83,69.16h0c5.62,0,10.18,4.56,10.18,10.18v5.62h0c-5.62,0-10.18-4.56-10.18-10.18v-5.62h0Z" transform="translate(-26.46 91.72) rotate(-45.96)"/>
        <path class="cls-1" d="M93.5,83.46h0s2.9.25,2.9.25c6.6.57,11.49,6.39,10.92,12.99h0s-2.9-.25-2.9-.25c-6.6-.57-11.49-6.39-10.92-12.99Z"/>
        <path class="cls-1" d="M81.19,67.55h0v5.62c0,5.62-4.56,10.18-10.18,10.18h0v-5.62c0-5.62,4.56-10.18,10.18-10.18Z" transform="translate(183.23 73.2) rotate(134.04)"/>
        <path class="cls-1" d="M78.97,59.47h0c5.62,0,10.18,4.56,10.18,10.18v5.62h0c-5.62,0-10.18-4.56-10.18-10.18v-5.62h0Z" transform="translate(-22.8 80.96) rotate(-45.96)"/>
      </g>
    </g>
  </g>
  <g>
    <g id="_Radial_Repeat_-5" data-name="&amp;lt;Radial Repeat&amp;gt;">
      <path class="cls-1" d="M75.41,101.06c-1.03,1.69-2.9,3.01-4.8,3.01-5.35,0-6.08-6.13-4.92-10.02.97-3.27,2.87-6.14,4.92-8.83-.04.06,1.49,2.03,1.6,2.18.9,1.33,1.72,2.72,2.38,4.18,1,2.21,1.85,4.81,1.61,7.27-.08.76-.36,1.52-.78,2.22Z"/>
    </g>
    <g id="_Radial_Repeat_-6" data-name="&amp;lt;Radial Repeat&amp;gt;">
      <path class="cls-1" d="M31.68,66.7c-1.69-1.03-3.01-2.9-3.01-4.8,0-5.35,6.13-6.08,10.02-4.92,3.27.97,6.14,2.87,8.83,4.92-.06-.04-2.03,1.49-2.18,1.6-1.33.9-2.72,1.72-4.18,2.38-2.21,1-4.81,1.85-7.27,1.61-.76-.08-1.52-.36-2.22-.78Z"/>
    </g>
    <g id="_Radial_Repeat_-7" data-name="&amp;lt;Radial Repeat&amp;gt;">
      <path class="cls-1" d="M66.04,22.96c1.03-1.69,2.9-3.01,4.8-3.01,5.35,0,6.08,6.13,4.92,10.02-.97,3.27-2.87,6.14-4.92,8.83.04-.06-1.49-2.03-1.6-2.18-.9-1.33-1.72-2.72-2.38-4.18-1-2.21-1.85-4.81-1.61-7.27.08-.76.36-1.52.78-2.22Z"/>
    </g>
    <g id="_Radial_Repeat_-8" data-name="&amp;lt;Radial Repeat&amp;gt;">
      <path class="cls-1" d="M109.77,57.32c1.69,1.03,3.01,2.9,3.01,4.8,0,5.35-6.13,6.08-10.02,4.92-3.27-.97-6.14-2.87-8.83-4.92.06.04,2.03-1.49,2.18-1.6,1.33-.9,2.72-1.72,4.18-2.38,2.21-1,4.81-1.85,7.27-1.61.76.08,1.52.36,2.22.78Z"/>
    </g>
  </g>
</svg>