<?xml version="1.0" encoding="UTF-8"?>
<svg id="Layer_1" data-name="Layer 1" xmlns="http://www.w3.org/2000/svg" viewBox="0 0 49.99 24.54">
  <defs>
    <style>
      .cls-1 {
        fill: #5f4234;
      }
    </style>
  </defs>
  <path class="cls-1" d="M19.37-2.2h0c6.16,0,11.16,5,11.16,11.16v6.16h0c-6.16,0-11.16-5-11.16-11.16V-2.2h0Z" transform="translate(19.1 31.55) rotate(-91.39)"/>
  <path class="cls-1" d="M30.94,10.23h0v6.16c0,6.16-5,11.16-11.16,11.16h0v-6.16c0-6.16,5-11.16,11.16-11.16Z" transform="translate(43.63 -6.93) rotate(88.61)"/>
  <path class="cls-1" d="M28.97,12.67h0s2.52,1.95,2.52,1.95c5.75,4.44,14,3.38,18.45-2.36h0s-2.52-1.95-2.52-1.95c-5.75-4.44-14-3.38-18.45,2.36Z"/>
  <path class="cls-1" d="M3.41-2.45h0c6.16,0,11.16,5,11.16,11.16v6.16h0c-6.16,0-11.16-5-11.16-11.16V-2.45h0Z" transform="translate(3 15.35) rotate(-91.39)"/>
  <path class="cls-1" d="M14.99,9.98h0v6.16c0,6.16-5,11.16-11.16,11.16h0v-6.16c0-6.16,5-11.16,11.16-11.16Z" transform="translate(27.81 8.78) rotate(88.61)"/>
</svg>