<?xml version="1.0" encoding="UTF-8"?>
<svg id="Layer_1" data-name="Layer 1" xmlns="http://www.w3.org/2000/svg" xmlns:xlink="http://www.w3.org/1999/xlink" viewBox="0 0 227.68 53.33">
  <defs>
    <style>
      .cls-1 {
        fill: none;
      }

      .cls-2 {
        fill: #221f20;
      }

      .cls-3 {
        clip-path: url(#clippath);
      }
    </style>
    <clipPath id="clippath">
      <rect class="cls-1" x="-2.33" y="16.48" width="230.01" height="25.46"/>
    </clipPath>
  </defs>
  <g class="cls-3">
    <g>
      <path class="cls-2" d="M.96,17.83c1.77-1.25,4.22-1.77,6.14-.94,5.39,2.32,3.46,8.81.6,12.22-2.4,2.87-5.55,4.94-8.78,6.76.07-.04-.63-2.69-.66-2.88-.33-1.73-.55-3.48-.59-5.24-.05-2.66.22-5.65,1.53-8.01.41-.73,1.02-1.38,1.75-1.9Z"/>
      <path class="cls-2" d="M12.06,17.83c1.77-1.25,4.22-1.77,6.14-.94,5.39,2.32,3.46,8.81.6,12.22-2.4,2.87-5.55,4.94-8.78,6.76.07-.04-.63-2.69-.66-2.88-.33-1.73-.55-3.48-.59-5.24-.05-2.66.22-5.65,1.53-8.01.41-.73,1.02-1.38,1.75-1.9Z"/>
      <path class="cls-2" d="M23.15,17.83c1.77-1.25,4.22-1.77,6.14-.94,5.39,2.32,3.46,8.81.6,12.22-2.4,2.87-5.55,4.94-8.78,6.76.07-.04-.63-2.69-.66-2.88-.33-1.73-.55-3.48-.59-5.24-.05-2.66.22-5.65,1.53-8.01.41-.73,1.02-1.38,1.75-1.9Z"/>
      <path class="cls-2" d="M34.25,17.83c1.77-1.25,4.22-1.77,6.14-.94,5.39,2.32,3.46,8.81.6,12.22-2.4,2.87-5.55,4.94-8.78,6.76.07-.04-.63-2.69-.66-2.88-.33-1.73-.55-3.48-.59-5.24-.05-2.66.22-5.65,1.53-8.01.41-.73,1.02-1.38,1.75-1.9Z"/>
      <path class="cls-2" d="M45.34,17.83c1.77-1.25,4.22-1.77,6.14-.94,5.39,2.32,3.46,8.81.6,12.22-2.4,2.87-5.55,4.94-8.78,6.76.07-.04-.63-2.69-.66-2.88-.33-1.73-.55-3.48-.59-5.24-.05-2.66.22-5.65,1.53-8.01.41-.73,1.02-1.38,1.75-1.9Z"/>
      <path class="cls-2" d="M56.43,17.83c1.77-1.25,4.22-1.77,6.14-.94,5.39,2.32,3.46,8.81.6,12.22-2.4,2.87-5.55,4.94-8.78,6.76.07-.04-.63-2.69-.66-2.88-.33-1.73-.55-3.48-.59-5.24-.05-2.66.22-5.65,1.53-8.01.41-.73,1.02-1.38,1.75-1.9Z"/>
      <path class="cls-2" d="M67.53,17.83c1.77-1.25,4.22-1.77,6.14-.94,5.39,2.32,3.46,8.81.6,12.22-2.4,2.87-5.55,4.94-8.78,6.76.07-.04-.63-2.69-.66-2.88-.33-1.73-.55-3.48-.59-5.24-.05-2.66.22-5.65,1.53-8.01.41-.73,1.02-1.38,1.75-1.9Z"/>
      <path class="cls-2" d="M78.62,17.83c1.77-1.25,4.22-1.77,6.14-.94,5.39,2.32,3.46,8.81.6,12.22-2.4,2.87-5.55,4.94-8.78,6.76.07-.04-.63-2.69-.66-2.88-.33-1.73-.55-3.48-.59-5.24-.05-2.66.22-5.65,1.53-8.01.41-.73,1.02-1.38,1.75-1.9Z"/>
      <path class="cls-2" d="M89.72,17.83c1.77-1.25,4.22-1.77,6.14-.94,5.39,2.32,3.46,8.81.6,12.22-2.4,2.87-5.55,4.94-8.78,6.76.07-.04-.63-2.69-.66-2.88-.33-1.73-.55-3.48-.59-5.24-.05-2.66.22-5.65,1.53-8.01.41-.73,1.02-1.38,1.75-1.9Z"/>
      <path class="cls-2" d="M100.81,17.83c1.77-1.25,4.22-1.77,6.14-.94,5.39,2.32,3.46,8.81.6,12.22-2.4,2.87-5.55,4.94-8.78,6.76.07-.04-.63-2.69-.66-2.88-.33-1.73-.55-3.48-.59-5.24-.05-2.66.22-5.65,1.53-8.01.41-.73,1.02-1.38,1.75-1.9Z"/>
      <path class="cls-2" d="M111.9,17.83c1.77-1.25,4.22-1.77,6.14-.94,5.39,2.32,3.46,8.81.6,12.22-2.4,2.87-5.55,4.94-8.78,6.76.07-.04-.63-2.69-.66-2.88-.33-1.73-.55-3.48-.59-5.24-.05-2.66.22-5.65,1.53-8.01.41-.73,1.02-1.38,1.75-1.9Z"/>
      <path class="cls-2" d="M123,17.83c1.77-1.25,4.22-1.77,6.14-.94,5.39,2.32,3.46,8.81.6,12.22-2.4,2.87-5.55,4.94-8.78,6.76.07-.04-.63-2.69-.66-2.88-.33-1.73-.55-3.48-.59-5.24-.05-2.66.22-5.65,1.53-8.01.41-.73,1.02-1.38,1.75-1.9Z"/>
      <path class="cls-2" d="M134.09,17.83c1.77-1.25,4.22-1.77,6.14-.94,5.39,2.32,3.46,8.81.6,12.22-2.4,2.87-5.55,4.94-8.78,6.76.07-.04-.63-2.69-.66-2.88-.33-1.73-.55-3.48-.59-5.24-.05-2.66.22-5.65,1.53-8.01.41-.73,1.02-1.38,1.75-1.9Z"/>
      <path class="cls-2" d="M145.19,17.83c1.77-1.25,4.22-1.77,6.14-.94,5.39,2.32,3.46,8.81.6,12.22-2.4,2.87-5.55,4.94-8.78,6.76.07-.04-.63-2.69-.66-2.88-.33-1.73-.55-3.48-.59-5.24-.05-2.66.22-5.65,1.53-8.01.41-.73,1.02-1.38,1.75-1.9Z"/>
      <path class="cls-2" d="M156.28,17.83c1.77-1.25,4.22-1.77,6.14-.94,5.39,2.32,3.46,8.81.6,12.22-2.4,2.87-5.55,4.94-8.78,6.76.07-.04-.63-2.69-.66-2.88-.33-1.73-.55-3.48-.59-5.24-.05-2.66.22-5.65,1.53-8.01.41-.73,1.02-1.38,1.75-1.9Z"/>
      <path class="cls-2" d="M167.37,17.83c1.77-1.25,4.22-1.77,6.14-.94,5.39,2.32,3.46,8.81.6,12.22-2.4,2.87-5.55,4.94-8.78,6.76.07-.04-.63-2.69-.66-2.88-.33-1.73-.55-3.48-.59-5.24-.05-2.66.22-5.65,1.53-8.01.41-.73,1.02-1.38,1.75-1.9Z"/>
      <path class="cls-2" d="M178.47,17.83c1.77-1.25,4.22-1.77,6.14-.94,5.39,2.32,3.46,8.81.6,12.22-2.4,2.87-5.55,4.94-8.78,6.76.07-.04-.63-2.69-.66-2.88-.33-1.73-.55-3.48-.59-5.24-.05-2.66.22-5.65,1.53-8.01.41-.73,1.02-1.38,1.75-1.9Z"/>
      <path class="cls-2" d="M189.56,17.83c1.77-1.25,4.22-1.77,6.14-.94,5.39,2.32,3.46,8.81.6,12.22-2.4,2.87-5.55,4.94-8.78,6.76.07-.04-.63-2.69-.66-2.88-.33-1.73-.55-3.48-.59-5.24-.05-2.66.22-5.65,1.53-8.01.41-.73,1.02-1.38,1.75-1.9Z"/>
      <path class="cls-2" d="M200.66,17.83c1.77-1.25,4.22-1.77,6.14-.94,5.39,2.32,3.46,8.81.6,12.22-2.4,2.87-5.55,4.94-8.78,6.76.07-.04-.63-2.69-.66-2.88-.33-1.73-.55-3.48-.59-5.24-.05-2.66.22-5.65,1.53-8.01.41-.73,1.02-1.38,1.75-1.9Z"/>
      <path class="cls-2" d="M211.75,17.83c1.77-1.25,4.22-1.77,6.14-.94,5.39,2.32,3.46,8.81.6,12.22-2.4,2.87-5.55,4.94-8.78,6.76.07-.04-.63-2.69-.66-2.88-.33-1.73-.55-3.48-.59-5.24-.05-2.66.22-5.65,1.53-8.01.41-.73,1.02-1.38,1.75-1.9Z"/>
      <path class="cls-2" d="M222.85,17.83c1.77-1.25,4.22-1.77,6.14-.94,5.39,2.32,3.46,8.81.6,12.22-2.4,2.87-5.55,4.94-8.78,6.76.07-.04-.63-2.69-.66-2.88-.33-1.73-.55-3.48-.59-5.24-.05-2.66.22-5.65,1.53-8.01.41-.73,1.02-1.38,1.75-1.9Z"/>
    </g>
  </g>
</svg>