<?xml version="1.0" encoding="UTF-8"?>
<svg id="Layer_1" xmlns="http://www.w3.org/2000/svg" version="1.1" viewBox="0 0 265.24 83.99">
  <!-- Generator: Adobe Illustrator 29.5.1, SVG Export Plug-In . SVG Version: 2.1.0 Build 141)  -->
  <defs>
    <style>
      .st0 {
        fill: #f3efeb;
      }
    </style>
  </defs>
  <g>
    <path class="st0" d="M112.33,26.91c-.59,1.1-1.52,1.98-2.79,2.65s-2.86,1.01-4.78,1.01h-3.92v8.99h-4.7v-23.42h8.62c1.81,0,3.35.31,4.63.94,1.27.63,2.23,1.49,2.87,2.58s.96,2.34.96,3.72c0,1.25-.3,2.43-.89,3.52ZM107.44,25.89c.63-.59.94-1.43.94-2.5,0-2.28-1.27-3.42-3.82-3.42h-3.72v6.81h3.72c1.3,0,2.26-.3,2.88-.89Z"/>
    <path class="st0" d="M116.45,25.2c.75-1.45,1.77-2.57,3.05-3.35,1.29-.78,2.72-1.17,4.31-1.17,1.39,0,2.6.28,3.64.84,1.04.56,1.87,1.26,2.5,2.11v-2.65h4.73v18.59h-4.73v-2.72c-.6.87-1.44,1.59-2.5,2.16s-2.29.86-3.67.86c-1.57,0-2.99-.4-4.28-1.21-1.29-.8-2.3-1.94-3.05-3.4-.75-1.46-1.12-3.15-1.12-5.05s.37-3.54,1.12-5ZM129.28,27.33c-.45-.82-1.05-1.44-1.81-1.88-.76-.44-1.58-.65-2.45-.65s-1.68.21-2.42.64c-.74.43-1.34,1.05-1.79,1.86-.46.82-.69,1.78-.69,2.9s.23,2.1.69,2.94c.46.84,1.06,1.48,1.81,1.93s1.55.67,2.4.67,1.69-.22,2.45-.65c.76-.44,1.36-1.06,1.81-1.88.45-.82.67-1.79.67-2.94s-.22-2.12-.67-2.94Z"/>
    <path class="st0" d="M154.95,22.8c1.36,1.4,2.05,3.35,2.05,5.85v10.9h-4.7v-10.27c0-1.48-.37-2.61-1.11-3.41-.74-.79-1.75-1.19-3.02-1.19s-2.32.4-3.07,1.19c-.75.79-1.12,1.93-1.12,3.41v10.27h-4.7v-18.59h4.7v2.32c.63-.81,1.43-1.44,2.4-1.9s2.04-.69,3.2-.69c2.21,0,4,.7,5.37,2.1Z"/>
    <path class="st0" d="M161.37,25.2c.75-1.45,1.77-2.57,3.07-3.35,1.3-.78,2.74-1.17,4.33-1.17,1.21,0,2.36.26,3.46.79,1.1.53,1.97,1.22,2.62,2.1v-8.82h4.76v24.83h-4.76v-2.75c-.58.92-1.4,1.66-2.45,2.21-1.05.56-2.27.84-3.66.84-1.57,0-3-.4-4.29-1.21-1.3-.8-2.32-1.94-3.07-3.4-.75-1.46-1.12-3.15-1.12-5.05s.37-3.54,1.12-5ZM174.21,27.33c-.45-.82-1.05-1.44-1.81-1.88-.76-.44-1.58-.65-2.45-.65s-1.68.21-2.42.64c-.74.43-1.34,1.05-1.79,1.86-.46.82-.69,1.78-.69,2.9s.23,2.1.69,2.94c.46.84,1.06,1.48,1.81,1.93s1.55.67,2.4.67,1.69-.22,2.45-.65c.76-.44,1.36-1.06,1.81-1.88.45-.82.67-1.79.67-2.94s-.22-2.12-.67-2.94Z"/>
    <path class="st0" d="M184.52,17.97c-.55-.53-.82-1.18-.82-1.96s.27-1.44.82-1.96c.55-.52,1.24-.79,2.06-.79s1.52.26,2.06.79c.55.53.82,1.18.82,1.96s-.27,1.44-.82,1.96-1.24.79-2.06.79-1.51-.26-2.06-.79ZM188.9,20.98v18.59h-4.7v-18.59h4.7Z"/>
    <path class="st0" d="M201.28,35.23l4.7-14.26h5l-6.88,18.59h-5.7l-6.84-18.59h5.03l4.7,14.26Z"/>
    <path class="st0" d="M230.77,31.68h-13.59c.11,1.34.58,2.39,1.41,3.15.83.76,1.84,1.14,3.05,1.14,1.74,0,2.99-.75,3.72-2.25h5.07c-.54,1.79-1.57,3.26-3.09,4.41-1.52,1.15-3.39,1.73-5.6,1.73-1.79,0-3.39-.4-4.81-1.19s-2.53-1.92-3.32-3.37c-.79-1.45-1.19-3.13-1.19-5.03s.39-3.61,1.17-5.07c.78-1.45,1.88-2.57,3.29-3.35,1.41-.78,3.03-1.17,4.86-1.17s3.35.38,4.75,1.14c1.4.76,2.48,1.84,3.25,3.24.77,1.4,1.16,3,1.16,4.81,0,.67-.04,1.27-.13,1.81ZM226.04,28.52c-.02-1.21-.46-2.17-1.31-2.9-.85-.73-1.89-1.09-3.12-1.09-1.16,0-2.14.35-2.93,1.06-.79.7-1.28,1.68-1.46,2.94h8.82Z"/>
    <path class="st0" d="M241.38,21.55c.97-.56,2.08-.84,3.34-.84v4.93h-1.24c-1.48,0-2.59.35-3.34,1.04-.75.69-1.12,1.9-1.12,3.62v9.26h-4.7v-18.59h4.7v2.89c.6-.98,1.39-1.76,2.37-2.32Z"/>
    <path class="st0" d="M265.02,31.68h-13.59c.11,1.34.58,2.39,1.41,3.15.83.76,1.84,1.14,3.05,1.14,1.74,0,2.99-.75,3.72-2.25h5.07c-.54,1.79-1.57,3.26-3.09,4.41-1.52,1.15-3.39,1.73-5.6,1.73-1.79,0-3.39-.4-4.81-1.19s-2.53-1.92-3.32-3.37c-.79-1.45-1.19-3.13-1.19-5.03s.39-3.61,1.17-5.07c.78-1.45,1.88-2.57,3.29-3.35,1.41-.78,3.03-1.17,4.86-1.17s3.35.38,4.75,1.14c1.4.76,2.48,1.84,3.25,3.24.77,1.4,1.16,3,1.16,4.81,0,.67-.04,1.27-.13,1.81ZM260.29,28.52c-.02-1.21-.46-2.17-1.31-2.9-.85-.73-1.89-1.09-3.12-1.09-1.16,0-2.14.35-2.93,1.06-.79.7-1.28,1.68-1.46,2.94h8.82Z"/>
    <path class="st0" d="M112.07,46.87v3.79h-6.24v19.63h-4.7v-19.63h-6.24v-3.79h17.18Z"/>
    <path class="st0" d="M133.04,51.7v18.59h-4.73v-2.35c-.6.81-1.39,1.44-2.37,1.9-.97.46-2.03.69-3.17.69-1.45,0-2.74-.31-3.86-.92s-2-1.52-2.63-2.72c-.64-1.2-.96-2.62-.96-4.28v-10.9h4.7v10.23c0,1.48.37,2.61,1.11,3.41.74.79,1.74,1.19,3.02,1.19s2.32-.4,3.05-1.19c.74-.79,1.11-1.93,1.11-3.41v-10.23h4.73Z"/>
    <path class="st0" d="M155.22,51.7v18.59h-4.73v-2.35c-.6.81-1.39,1.44-2.37,1.9-.97.46-2.03.69-3.17.69-1.45,0-2.74-.31-3.86-.92s-2-1.52-2.63-2.72c-.64-1.2-.96-2.62-.96-4.28v-10.9h4.7v10.23c0,1.48.37,2.61,1.11,3.41.74.79,1.74,1.19,3.02,1.19s2.32-.4,3.05-1.19c.74-.79,1.11-1.93,1.11-3.41v-10.23h4.73Z"/>
    <path class="st0" d="M164.54,45.46v24.83h-4.7v-24.83h4.7Z"/>
    <path class="st0" d="M169.49,48.69c-.55-.53-.82-1.18-.82-1.96s.27-1.44.82-1.96c.55-.52,1.24-.79,2.06-.79s1.52.26,2.06.79c.55.53.82,1.18.82,1.96s-.27,1.44-.82,1.96-1.24.79-2.06.79-1.51-.26-2.06-.79ZM173.87,51.7v18.59h-4.7v-18.59h4.7Z"/>
    <path class="st0" d="M189.5,70.28l-6.31-7.92v7.92h-4.7v-24.83h4.7v14.12l6.24-7.88h6.11l-8.19,9.33,8.25,9.26h-6.11Z"/>
  </g>
  <g>
    <g>
      <g id="_x3C_Radial_Repeat_x3E_">
        <g>
          <path class="st0" d="M23.84,49.88h0v5.62c0,5.62-4.56,10.18-10.18,10.18h0v-5.62c0-5.62,4.56-10.18,10.18-10.18Z" transform="translate(-8.74 111.95) rotate(-135.12)"/>
          <path class="st0" d="M21.62,57.96h0c5.62,0,10.18,4.56,10.18,10.18v5.62h0c-5.62,0-10.18-4.56-10.18-10.18v-5.62h0Z" transform="translate(54.26 .35) rotate(44.88)"/>
          <path class="st0" d="M20.34,64.35h0s-.29,2.89-.29,2.89c-.67,6.59-6.56,11.39-13.15,10.73h0s.29-2.89.29-2.89c.67-6.59,6.56-11.39,13.15-10.73Z"/>
          <path class="st0" d="M33.69,39.16h0v5.62c0,5.62-4.56,10.18-10.18,10.18h0v-5.62c0-5.62,4.56-10.18,10.18-10.18Z" transform="translate(15.66 100.59) rotate(-135.12)"/>
          <path class="st0" d="M31.47,47.24h0c5.62,0,10.18,4.56,10.18,10.18v5.62h0c-5.62,0-10.18-4.56-10.18-10.18v-5.62h0Z" transform="translate(49.57 -9.73) rotate(44.88)"/>
        </g>
      </g>
      <g id="_x3C_Radial_Repeat_x3E_1" data-name="_x3C_Radial_Repeat_x3E_">
        <g>
          <path class="st0" d="M31.31,10.62h0v5.62c0,5.62-4.56,10.18-10.18,10.18h0v-5.62c0-5.62,4.56-10.18,10.18-10.18Z" transform="translate(-5.4 24.03) rotate(-45.12)"/>
          <path class="st0" d="M13.05,18.58h0c5.62,0,10.18,4.56,10.18,10.18v5.62h0c-5.62,0-10.18-4.56-10.18-10.18v-5.62h0Z" transform="translate(49.71 32.31) rotate(134.88)"/>
          <path class="st0" d="M19.66,20.11h0s-2.89-.29-2.89-.29c-6.59-.67-11.39-6.56-10.73-13.15h0s2.89.29,2.89.29c6.59.67,11.39,6.56,10.73,13.15Z"/>
          <path class="st0" d="M42.03,20.47h0v5.62c0,5.62-4.56,10.18-10.18,10.18h0v-5.62c0-5.62,4.56-10.18,10.18-10.18Z" transform="translate(-9.23 34.53) rotate(-45.12)"/>
          <path class="st0" d="M23.77,28.43h0c5.62,0,10.18,4.56,10.18,10.18v5.62h0c-5.62,0-10.18-4.56-10.18-10.18v-5.62h0Z" transform="translate(74.97 41.52) rotate(134.88)"/>
        </g>
      </g>
      <g id="_x3C_Radial_Repeat_x3E_2" data-name="_x3C_Radial_Repeat_x3E_">
        <g>
          <path class="st0" d="M70.58,18.09h0v5.62c0,5.62-4.56,10.18-10.18,10.18h0v-5.62c0-5.62,4.56-10.18,10.18-10.18Z" transform="translate(37.43 -38.64) rotate(44.88)"/>
          <path class="st0" d="M52.44,10.01h0c5.62,0,10.18,4.56,10.18,10.18v5.62h0c-5.62,0-10.18-4.56-10.18-10.18v-5.62h0Z" transform="translate(85.65 71.2) rotate(-135.12)"/>
          <path class="st0" d="M63.9,19.43h0s.29-2.89.29-2.89c.67-6.59,6.56-11.39,13.15-10.73h0s-.29,2.89-.29,2.89c-.67,6.59-6.56,11.39-13.15,10.73Z"/>
          <path class="st0" d="M60.73,28.81h0v5.62c0,5.62-4.56,10.18-10.18,10.18h0v-5.62c0-5.62,4.56-10.18,10.18-10.18Z" transform="translate(42.12 -28.56) rotate(44.88)"/>
          <path class="st0" d="M42.58,20.73h0c5.62,0,10.18,4.56,10.18,10.18v5.62h0c-5.62,0-10.18-4.56-10.18-10.18v-5.62h0Z" transform="translate(61.24 82.56) rotate(-135.12)"/>
        </g>
      </g>
      <g id="_x3C_Radial_Repeat_x3E_3" data-name="_x3C_Radial_Repeat_x3E_">
        <g>
          <path class="st0" d="M63.1,57.36h0v5.62c0,5.62-4.56,10.18-10.18,10.18h0v-5.62c0-5.62,4.56-10.18,10.18-10.18Z" transform="translate(145.19 70.2) rotate(134.88)"/>
          <path class="st0" d="M61,49.4h0c5.62,0,10.18,4.56,10.18,10.18v5.62h0c-5.62,0-10.18-4.56-10.18-10.18v-5.62h0Z" transform="translate(-21.14 63.7) rotate(-45.12)"/>
          <path class="st0" d="M64.58,63.67h0s2.89.29,2.89.29c6.59.67,11.39,6.56,10.73,13.15h0s-2.89-.29-2.89-.29c-6.59-.67-11.39-6.56-10.73-13.15Z"/>
          <path class="st0" d="M52.38,47.5h0v5.62c0,5.62-4.56,10.18-10.18,10.18h0v-5.62c0-5.62,4.56-10.18,10.18-10.18Z" transform="translate(119.92 60.99) rotate(134.88)"/>
          <path class="st0" d="M50.28,39.54h0c5.62,0,10.18,4.56,10.18,10.18v5.62h0c-5.62,0-10.18-4.56-10.18-10.18v-5.62h0Z" transform="translate(-17.32 53.2) rotate(-45.12)"/>
        </g>
      </g>
    </g>
    <g>
      <g id="_x3C_Radial_Repeat_x3E_4" data-name="_x3C_Radial_Repeat_x3E_">
        <path class="st0" d="M46.23,81c-1.05,1.67-2.95,2.96-4.85,2.94-5.35-.08-5.99-6.22-4.77-10.09,1.02-3.26,2.96-6.1,5.05-8.76-.05.06,1.47,2.05,1.57,2.2.88,1.34,1.68,2.74,2.32,4.22.97,2.22,1.78,4.84,1.5,7.29-.09.76-.38,1.52-.82,2.21Z"/>
      </g>
      <g id="_x3C_Radial_Repeat_x3E_5" data-name="_x3C_Radial_Repeat_x3E_">
        <path class="st0" d="M3,46c-1.67-1.05-2.96-2.95-2.94-4.85.08-5.35,6.22-5.99,10.09-4.77,3.26,1.02,6.1,2.96,8.76,5.05-.06-.05-2.05,1.47-2.2,1.57-1.34.88-2.74,1.68-4.22,2.32-2.22.97-4.84,1.78-7.29,1.5-.76-.09-1.52-.38-2.21-.82Z"/>
      </g>
      <g id="_x3C_Radial_Repeat_x3E_6" data-name="_x3C_Radial_Repeat_x3E_">
        <path class="st0" d="M38,2.77c1.05-1.67,2.95-2.96,4.85-2.94,5.35.08,5.99,6.22,4.77,10.09-1.02,3.26-2.96,6.1-5.05,8.76.05-.06-1.47-2.05-1.57-2.2-.88-1.34-1.68-2.74-2.32-4.22-.97-2.22-1.78-4.84-1.5-7.29.09-.76.38-1.52.82-2.21Z"/>
      </g>
      <g id="_x3C_Radial_Repeat_x3E_7" data-name="_x3C_Radial_Repeat_x3E_">
        <path class="st0" d="M81.23,37.77c1.67,1.05,2.96,2.95,2.94,4.85-.08,5.35-6.22,5.99-10.09,4.77-3.26-1.02-6.1-2.96-8.76-5.05.06.05,2.05-1.47,2.2-1.57,1.34-.88,2.74-1.68,4.22-2.32,2.22-.97,4.84-1.78,7.29-1.5.76.09,1.52.38,2.21.82Z"/>
      </g>
    </g>
  </g>
</svg>