<?xml version="1.0" encoding="UTF-8"?>
<svg id="Layer_1" data-name="Layer 1" xmlns="http://www.w3.org/2000/svg" viewBox="0 0 358.97 152.82">
  <defs>
    <style>
      .cls-1 {
        fill: #ffffff;
      }
    </style>
  </defs>
  <g>
    <path class="cls-1" d="M154.7,63.86c-.59,1.1-1.52,1.98-2.79,2.65s-2.86,1.01-4.78,1.01h-3.92v8.99h-4.7v-23.42h8.62c1.81,0,3.35.31,4.63.94,1.27.63,2.23,1.49,2.87,2.58s.96,2.34.96,3.72c0,1.25-.3,2.43-.89,3.52ZM149.82,62.84c.63-.59.94-1.43.94-2.5,0-2.28-1.27-3.42-3.82-3.42h-3.72v6.81h3.72c1.3,0,2.26-.3,2.88-.89Z"/>
    <path class="cls-1" d="M158.82,62.15c.75-1.45,1.77-2.57,3.05-3.35,1.29-.78,2.72-1.17,4.31-1.17,1.39,0,2.6.28,3.64.84,1.04.56,1.87,1.26,2.5,2.11v-2.65h4.73v18.59h-4.73v-2.72c-.6.87-1.44,1.59-2.5,2.16s-2.29.86-3.67.86c-1.57,0-2.99-.4-4.28-1.21-1.29-.8-2.3-1.94-3.05-3.4-.75-1.46-1.12-3.15-1.12-5.05s.37-3.54,1.12-5ZM171.66,64.28c-.45-.82-1.05-1.44-1.81-1.88-.76-.44-1.58-.65-2.45-.65s-1.68.21-2.42.64c-.74.43-1.34,1.05-1.79,1.86-.46.82-.69,1.78-.69,2.9s.23,2.1.69,2.94c.46.84,1.06,1.48,1.81,1.93s1.55.67,2.4.67,1.69-.22,2.45-.65c.76-.44,1.36-1.06,1.81-1.88.45-.82.67-1.79.67-2.94s-.22-2.12-.67-2.94Z"/>
    <path class="cls-1" d="M197.32,59.75c1.36,1.4,2.05,3.35,2.05,5.85v10.9h-4.7v-10.27c0-1.48-.37-2.61-1.11-3.41-.74-.79-1.75-1.19-3.02-1.19s-2.32.4-3.07,1.19c-.75.79-1.12,1.93-1.12,3.41v10.27h-4.7v-18.59h4.7v2.32c.63-.81,1.43-1.44,2.4-1.9s2.04-.69,3.2-.69c2.21,0,4,.7,5.37,2.1Z"/>
    <path class="cls-1" d="M203.75,62.15c.75-1.45,1.77-2.57,3.07-3.35,1.3-.78,2.74-1.17,4.33-1.17,1.21,0,2.36.26,3.46.79,1.1.53,1.97,1.22,2.62,2.1v-8.82h4.76v24.83h-4.76v-2.75c-.58.92-1.4,1.66-2.45,2.21-1.05.56-2.27.84-3.66.84-1.57,0-3-.4-4.29-1.21-1.3-.8-2.32-1.94-3.07-3.4-.75-1.46-1.12-3.15-1.12-5.05s.37-3.54,1.12-5ZM216.58,64.28c-.45-.82-1.05-1.44-1.81-1.88-.76-.44-1.58-.65-2.45-.65s-1.68.21-2.42.64c-.74.43-1.34,1.05-1.79,1.86-.46.82-.69,1.78-.69,2.9s.23,2.1.69,2.94c.46.84,1.06,1.48,1.81,1.93s1.55.67,2.4.67,1.69-.22,2.45-.65c.76-.44,1.36-1.06,1.81-1.88.45-.82.67-1.79.67-2.94s-.22-2.12-.67-2.94Z"/>
    <path class="cls-1" d="M226.89,54.92c-.55-.53-.82-1.18-.82-1.96s.27-1.44.82-1.96c.55-.52,1.24-.79,2.06-.79s1.52.26,2.06.79c.55.53.82,1.18.82,1.96s-.27,1.44-.82,1.96-1.24.79-2.06.79-1.51-.26-2.06-.79ZM231.27,57.92v18.59h-4.7v-18.59h4.7Z"/>
    <path class="cls-1" d="M243.65,72.18l4.7-14.26h5l-6.88,18.59h-5.7l-6.84-18.59h5.03l4.7,14.26Z"/>
    <path class="cls-1" d="M273.14,68.62h-13.59c.11,1.34.58,2.39,1.41,3.15.83.76,1.84,1.14,3.05,1.14,1.74,0,2.99-.75,3.72-2.25h5.07c-.54,1.79-1.57,3.26-3.09,4.41-1.52,1.15-3.39,1.73-5.6,1.73-1.79,0-3.39-.4-4.81-1.19s-2.53-1.92-3.32-3.37c-.79-1.45-1.19-3.13-1.19-5.03s.39-3.61,1.17-5.07c.78-1.45,1.88-2.57,3.29-3.35,1.41-.78,3.03-1.17,4.86-1.17s3.35.38,4.75,1.14c1.4.76,2.48,1.84,3.25,3.24.77,1.4,1.16,3,1.16,4.81,0,.67-.04,1.27-.13,1.81ZM268.41,65.47c-.02-1.21-.46-2.17-1.31-2.9-.85-.73-1.89-1.09-3.12-1.09-1.16,0-2.14.35-2.93,1.06-.79.7-1.28,1.68-1.46,2.94h8.82Z"/>
    <path class="cls-1" d="M283.76,58.49c.97-.56,2.08-.84,3.34-.84v4.93h-1.24c-1.48,0-2.59.35-3.34,1.04-.75.69-1.12,1.9-1.12,3.62v9.26h-4.7v-18.59h4.7v2.89c.6-.98,1.39-1.76,2.37-2.32Z"/>
    <path class="cls-1" d="M307.39,68.62h-13.59c.11,1.34.58,2.39,1.41,3.15.83.76,1.84,1.14,3.05,1.14,1.74,0,2.99-.75,3.72-2.25h5.07c-.54,1.79-1.57,3.26-3.09,4.41-1.52,1.15-3.39,1.73-5.6,1.73-1.79,0-3.39-.4-4.81-1.19s-2.53-1.92-3.32-3.37c-.79-1.45-1.19-3.13-1.19-5.03s.39-3.61,1.17-5.07c.78-1.45,1.88-2.57,3.29-3.35,1.41-.78,3.03-1.17,4.86-1.17s3.35.38,4.75,1.14c1.4.76,2.48,1.84,3.25,3.24.77,1.4,1.16,3,1.16,4.81,0,.67-.04,1.27-.13,1.81ZM302.66,65.47c-.02-1.21-.46-2.17-1.31-2.9-.85-.73-1.89-1.09-3.12-1.09-1.16,0-2.14.35-2.93,1.06-.79.7-1.28,1.68-1.46,2.94h8.82Z"/>
    <path class="cls-1" d="M154.45,83.81v3.79h-6.24v19.63h-4.7v-19.63h-6.24v-3.79h17.18Z"/>
    <path class="cls-1" d="M175.42,88.64v18.59h-4.73v-2.35c-.6.81-1.39,1.44-2.37,1.9-.97.46-2.03.69-3.17.69-1.45,0-2.74-.31-3.86-.92s-2-1.52-2.63-2.72c-.64-1.2-.96-2.62-.96-4.28v-10.9h4.7v10.23c0,1.48.37,2.61,1.11,3.41.74.79,1.74,1.19,3.02,1.19s2.32-.4,3.05-1.19c.74-.79,1.11-1.93,1.11-3.41v-10.23h4.73Z"/>
    <path class="cls-1" d="M197.59,88.64v18.59h-4.73v-2.35c-.6.81-1.39,1.44-2.37,1.9-.97.46-2.03.69-3.17.69-1.45,0-2.74-.31-3.86-.92s-2-1.52-2.63-2.72c-.64-1.2-.96-2.62-.96-4.28v-10.9h4.7v10.23c0,1.48.37,2.61,1.11,3.41.74.79,1.74,1.19,3.02,1.19s2.32-.4,3.05-1.19c.74-.79,1.11-1.93,1.11-3.41v-10.23h4.73Z"/>
    <path class="cls-1" d="M206.92,82.4v24.83h-4.7v-24.83h4.7Z"/>
    <path class="cls-1" d="M211.86,85.64c-.55-.53-.82-1.18-.82-1.96s.27-1.44.82-1.96c.55-.52,1.24-.79,2.06-.79s1.52.26,2.06.79c.55.53.82,1.18.82,1.96s-.27,1.44-.82,1.96-1.24.79-2.06.79-1.51-.26-2.06-.79ZM216.24,88.64v18.59h-4.7v-18.59h4.7Z"/>
    <path class="cls-1" d="M231.88,107.23l-6.31-7.92v7.92h-4.7v-24.83h4.7v14.12l6.24-7.88h6.11l-8.19,9.33,8.25,9.26h-6.11Z"/>
  </g>
  <g>
    <g>
      <g id="_Radial_Repeat_" data-name="&amp;lt;Radial Repeat&amp;gt;">
        <g>
          <path class="cls-1" d="M66.44,87.17h0v5.62c0,5.62-4.56,10.18-10.18,10.18h0v-5.62c0-5.62,4.56-10.18,10.18-10.18Z" transform="translate(39.36 206.06) rotate(-135.96)"/>
          <path class="cls-1" d="M64.34,95.13h0c5.62,0,10.18,4.56,10.18,10.18v5.62h0c-5.62,0-10.18-4.56-10.18-10.18v-5.62h0Z" transform="translate(91.15 -19.3) rotate(44.04)"/>
          <path class="cls-1" d="M63.04,101.61h0s-.25,2.9-.25,2.9c-.57,6.6-6.39,11.49-12.99,10.92h0s.25-2.9.25-2.9c.57-6.6,6.39-11.49,12.99-10.92Z"/>
          <path class="cls-1" d="M76.14,76.3h0v5.62c0,5.62-4.56,10.18-10.18,10.18h0v-5.62c0-5.62,4.56-10.18,10.18-10.18Z" transform="translate(63.58 194.12) rotate(-135.96)"/>
          <path class="cls-1" d="M74.04,84.27h0c5.62,0,10.18,4.56,10.18,10.18v5.62h0c-5.62,0-10.18-4.56-10.18-10.18v-5.62h0Z" transform="translate(86.33 -29.1) rotate(44.04)"/>
        </g>
      </g>
      <g id="_Radial_Repeat_-2" data-name="&amp;lt;Radial Repeat&amp;gt;">
        <g>
          <path class="cls-1" d="M73.35,47.8h0v5.62c0,5.62-4.56,10.18-10.18,10.18h0v-5.62c0-5.62,4.56-10.18,10.18-10.18Z" transform="translate(-19.23 66.04) rotate(-45.96)"/>
          <path class="cls-1" d="M55.2,55.88h0c5.62,0,10.18,4.56,10.18,10.18v5.62h0c-5.62,0-10.18-4.56-10.18-10.18v-5.62h0Z" transform="translate(148.05 64.78) rotate(134.04)"/>
          <path class="cls-1" d="M61.72,57.38h0s-2.9-.25-2.9-.25c-6.6-.57-11.49-6.39-10.92-12.99h0s2.9.25,2.9.25c6.6.57,11.49,6.39,10.92,12.99Z"/>
          <path class="cls-1" d="M84.21,57.49h0v5.62c0,5.62-4.56,10.18-10.18,10.18h0v-5.62c0-5.62,4.56-10.18,10.18-10.18Z" transform="translate(-22.89 76.8) rotate(-45.96)"/>
          <path class="cls-1" d="M66.07,65.57h0c5.62,0,10.18,4.56,10.18,10.18v5.62h0c-5.62,0-10.18-4.56-10.18-10.18v-5.62h0Z" transform="translate(173.44 73.41) rotate(134.04)"/>
        </g>
      </g>
      <g id="_Radial_Repeat_-3" data-name="&amp;lt;Radial Repeat&amp;gt;">
        <g>
          <path class="cls-1" d="M112.72,54.7h0v5.62c0,5.62-4.56,10.18-10.18,10.18h0v-5.62c0-5.62,4.56-10.18,10.18-10.18Z" transform="translate(73.78 -57.22) rotate(44.04)"/>
          <path class="cls-1" d="M94.46,46.73h0c5.62,0,10.18,4.56,10.18,10.18v5.62h0c-5.62,0-10.18-4.56-10.18-10.18v-5.62h0Z" transform="translate(133.12 163.11) rotate(-135.96)"/>
          <path class="cls-1" d="M105.94,56.06h0s.25-2.9.25-2.9c.57-6.6,6.39-11.49,12.99-10.92h0s-.25,2.9-.25,2.9c-.57,6.6-6.39,11.49-12.99,10.92Z"/>
          <path class="cls-1" d="M103.02,65.56h0v5.62c0,5.62-4.56,10.18-10.18,10.18h0v-5.62c0-5.62,4.56-10.18,10.18-10.18Z" transform="translate(78.61 -47.42) rotate(44.04)"/>
          <path class="cls-1" d="M84.76,57.6h0c5.62,0,10.18,4.56,10.18,10.18v5.62h0c-5.62,0-10.18-4.56-10.18-10.18v-5.62h0Z" transform="translate(108.9 175.04) rotate(-135.96)"/>
        </g>
      </g>
      <g id="_Radial_Repeat_-4" data-name="&amp;lt;Radial Repeat&amp;gt;">
        <g>
          <path class="cls-1" d="M105.82,94.07h0v5.62c0,5.62-4.56,10.18-10.18,10.18h0v-5.62c0-5.62,4.56-10.18,10.18-10.18Z" transform="translate(244.05 100.46) rotate(134.04)"/>
          <path class="cls-1" d="M103.6,85.99h0c5.62,0,10.18,4.56,10.18,10.18v5.62h0c-5.62,0-10.18-4.56-10.18-10.18v-5.62h0Z" transform="translate(-34.36 106.74) rotate(-45.96)"/>
          <path class="cls-1" d="M107.26,100.28h0s2.9.25,2.9.25c6.6.57,11.49,6.39,10.92,12.99h0s-2.9-.25-2.9-.25c-6.6-.57-11.49-6.39-10.92-12.99Z"/>
          <path class="cls-1" d="M94.95,84.37h0v5.62c0,5.62-4.56,10.18-10.18,10.18h0v-5.62c0-5.62,4.56-10.18,10.18-10.18Z" transform="translate(218.66 91.83) rotate(134.04)"/>
          <path class="cls-1" d="M92.74,76.29h0c5.62,0,10.18,4.56,10.18,10.18v5.62h0c-5.62,0-10.18-4.56-10.18-10.18v-5.62h0Z" transform="translate(-30.7 95.98) rotate(-45.96)"/>
        </g>
      </g>
    </g>
    <g>
      <g id="_Radial_Repeat_-5" data-name="&amp;lt;Radial Repeat&amp;gt;">
        <path class="cls-1" d="M89.18,117.88c-1.03,1.69-2.9,3.01-4.8,3.01-5.35,0-6.08-6.13-4.92-10.02.97-3.27,2.87-6.14,4.92-8.83-.04.06,1.49,2.03,1.6,2.18.9,1.33,1.72,2.72,2.38,4.18,1,2.21,1.85,4.81,1.61,7.27-.08.76-.36,1.52-.78,2.22Z"/>
      </g>
      <g id="_Radial_Repeat_-6" data-name="&amp;lt;Radial Repeat&amp;gt;">
        <path class="cls-1" d="M45.44,83.52c-1.69-1.03-3.01-2.9-3.01-4.8,0-5.35,6.13-6.08,10.02-4.92,3.27.97,6.14,2.87,8.83,4.92-.06-.04-2.03,1.49-2.18,1.6-1.33.9-2.72,1.72-4.18,2.38-2.21,1-4.81,1.85-7.27,1.61-.76-.08-1.52-.36-2.22-.78Z"/>
      </g>
      <g id="_Radial_Repeat_-7" data-name="&amp;lt;Radial Repeat&amp;gt;">
        <path class="cls-1" d="M79.81,39.78c1.03-1.69,2.9-3.01,4.8-3.01,5.35,0,6.08,6.13,4.92,10.02-.97,3.27-2.87,6.14-4.92,8.83.04-.06-1.49-2.03-1.6-2.18-.9-1.33-1.72-2.72-2.38-4.18-1-2.21-1.85-4.81-1.61-7.27.08-.76.36-1.52.78-2.22Z"/>
      </g>
      <g id="_Radial_Repeat_-8" data-name="&amp;lt;Radial Repeat&amp;gt;">
        <path class="cls-1" d="M123.54,74.15c1.69,1.03,3.01,2.9,3.01,4.8,0,5.35-6.13,6.08-10.02,4.92-3.27-.97-6.14-2.87-8.83-4.92.06.04,2.03-1.49,2.18-1.6,1.33-.9,2.72-1.72,4.18-2.38,2.21-1,4.81-1.85,7.27-1.61.76.08,1.52.36,2.22.78Z"/>
      </g>
    </g>
  </g>
</svg>